<?xml version="1.0" encoding="utf-8"?>
<!-- Generator: Adobe Illustrator 15.0.0, SVG Export Plug-In . SVG Version: 6.00 Build 0)  -->
<!DOCTYPE svg PUBLIC "-//W3C//DTD SVG 1.1//EN" "http://www.w3.org/Graphics/SVG/1.1/DTD/svg11.dtd">
<svg version="1.1" id="Flash_Pro_1_" xmlns="http://www.w3.org/2000/svg" xmlns:xlink="http://www.w3.org/1999/xlink" x="0px"
	 y="0px" width="512px" height="512px" viewBox="0 0 512 512" enable-background="new 0 0 512 512" xml:space="preserve">
<g id="Frame_3_">
	<g>
		<rect x="6.998" y="11.998" fill="#B4DB29" width="499.004" height="486.004"/>
	</g>
</g>
<g id="Background_3_">
	<g>
		<rect x="45.008" y="51.016" fill="#6D8C31" width="421.987" height="407.969"/>
	</g>
</g>
<g id="Shadow2_3_" opacity="0.302">
	<g>
		<polygon points="447.581,194.093 340,190 213.593,195.593 176.094,153.595 96.599,147.596 87.599,357.585 162.874,459 467,459 
			467,215 		"/>
	</g>
</g>
<g id="Shadow_4_" opacity="0.302">
	<g>
		<rect x="45.008" y="51.001" width="421.987" height="13.998"/>
	</g>
</g>
<g>
	<path fill="#B4DB29" d="M85.572,141.181c0-1.348,0.574-2.021,2.009-2.365c14.634-0.333,34.723-0.672,53.375-0.672
		c61.125,0,92.116,42.197,92.116,106.675c0,96.209-61.125,112.414-97.568,112.414c-19.513,0-34.149-0.339-48.209-0.677
		c-1.149,0-1.723-0.673-1.723-2.699V141.181z M118.86,325.839c4.593,0,10.905,0.333,18.366,0.333
		c36.446,0,61.698-23.289,61.698-80.342c0-52.662-22.095-76.629-57.967-76.629c-11.192,0-19.514,0.338-22.097,0.676V325.839z"/>
	<path fill="#B4DB29" d="M371.662,356.557c-2.008,0-2.581-0.673-3.156-2.699c-15.498-75.617-20.66-104.313-23.245-119.842h-0.285
		c-2.869,16.878-9.47,45.912-26.978,119.842c-0.572,2.36-1.433,2.699-2.867,2.699h-30.133c-2.582,0-3.157-0.673-3.731-2.699
		l-35.869-158.66c-0.574-1.688,0-2.702,1.721-2.702h29.561c1.721,0,2.293,0.672,2.58,2.025
		c17.794,83.72,22.098,112.076,24.106,124.567h0.574c1.434-8.104,8.606-43.891,25.826-124.234c0.288-1.687,0.859-2.358,2.583-2.358
		h29.27c1.437,0,1.724,0.672,2.011,2.025c17.504,83.043,22.381,113.087,24.391,125.239h0.286
		c3.445-18.564,8.61-50.969,25.542-125.239c0.287-1.353,0.861-2.025,2.296-2.025h26.975c1.146,0,2.008,0.672,1.721,2.358
		l-39.888,159.003c-0.574,2.026-0.863,2.699-2.869,2.699H371.662z"/>
</g>
</svg>
