<svg version="1.1" id="Layer_1" xmlns="http://www.w3.org/2000/svg" xmlns:xlink="http://www.w3.org/1999/xlink" x="0px" y="0px"
width="800px" height="800px" viewBox="0 0 450 450" 
xml:space="preserve">
    <title>HTML5 Logo Badge</title>
    <g>
        <path fill="#D6BA32" d="M29.672,332.906L0,0h326.391l-29.672,332.906l-133.885,37.633"/>
        <path fill="#FFDA3E" d="M163.558,344.076l107.831-29.673l25.33-285.141H163.558V344.076z"/>
        <path fill="#FFFFFF" d="M292.096,85.146"/>
        <polygon fill="#EBEBEB" points="118.415,71.82 118.415,242.706 55.248,225.11 55.248,263.216 149.997,289.606 149.997,71.82     "/>
        <polygon fill="#FFFFFF" points="276.936,109.926 280.25,71.82 176.389,71.82 176.389,213.309 241.211,201.71 239.555,234.647 
        176.389,251.413 176.389,289.518 264.512,266.439 272.795,160.414 207.971,168.404 207.971,109.926     "/>
        <text transform="matrix(1 0 0 1 19.4624 441.9258)" font-family="'MinionPro-Regular'" font-size="74.5482">JavaScript</text>
    </g>
</svg>