<?xml version="1.0" encoding="utf-8"?>
<!-- Generator: Adobe Illustrator 15.0.0, SVG Export Plug-In . SVG Version: 6.00 Build 0)  -->
<!DOCTYPE svg PUBLIC "-//W3C//DTD SVG 1.1//EN" "http://www.w3.org/Graphics/SVG/1.1/DTD/svg11.dtd">
<svg version="1.1" id="Layer_1" xmlns="http://www.w3.org/2000/svg" xmlns:xlink="http://www.w3.org/1999/xlink" x="0px" y="0px"
	 width="410px" height="410px" viewBox="0 0 410 410" enable-background="new 0 0 410 410" xml:space="preserve">
<g id="html5" display="none">
	<g display="inline">
		<path fill="#FFFFFF" d="M24.414,0.199l32.859,368.652l147.5,40.946l147.891-41.012l32.922-368.59L24.414,0.199L24.414,0.199z
			 M314.051,120.769H141.035l4.121,46.301h164.785l-12.414,138.805l-92.535,25.668l-0.094,0.031h-0.109l-92.629-25.699
			l-6.332-71.004h45.398l3.219,36.09l50.344,13.566l0.113-0.031l50.372-13.594l5.229-58.621h-156.7L91.609,75.562h226.484
			L314.051,120.769z"/>
	</g>
</g>
<g id="rails" display="none">
	<path display="inline" fill="#FFFFFF" d="M363.922,362.4c0,25.459-20.662,46.122-46.121,46.122H42.905V46.321
		c0-25.458,20.663-46.122,46.122-46.122h274.895V362.4L363.922,362.4z M214.908,212.754l19.959,9.168l-2.047-14.246l-18.193-9.803
		L214.908,212.754z M63.356,260.427l26.023,2.962l5.642-24.188l-24.894-4.443L63.356,260.427z M155.882,93.006l-16.996-12.553
		l-11.848,16.079l18.688,11.637L155.882,93.006z M208.066,50.693l-10.929-14.246l-15.374,9.027l12.764,13.893L208.066,50.693z
		 M264.275,40.679l-3.526-11.637l-18.479-1.481l5.36,12.765L264.275,40.679z M326.758,55.348l-15.515-11.072v7.193l14.949,9.238
		L326.758,55.348z M116.883,158.663l-21.298-9.239l-7.193,21.086l21.791,8.11L116.883,158.663z M222.736,149.142l-3.811,13.047
		l13.686,12.553l3.453-12.13L222.736,149.142z M310.114,90.82l11.354,0.564l0.071-5.289l-11.849-2.396L310.114,90.82z
		 M262.865,46.814c-54.727-2.68-152.611,49.154-166.715,257.194h134.133c-30.043-77.927-26.587-136.672-5.926-176.517
		c30.045-57.969,74.826-61.777,116.646-37.376c1.48-3.526,3.526-7.969,3.526-7.969C320.692,59.226,298.337,48.507,262.865,46.814z
		 M266.884,89.974l5.007,11.919l9.238-5.007l-3.453-11.001L266.884,89.974z M236.561,117.055l10.154,13.963l6.275-9.167
		l-8.885-13.752L236.561,117.055z M252.074,279.607l-6.276-15.231l-23.202-4.373l6.137,17.56L252.074,279.607z M119.069,350.836
		v-9.873c0-5.29-5.289-14.738-14.88-14.738s-31.312,0-31.312,0v59.312h16.009v-17.277l12.976,17.277h19.252l-15.021-19.959
		C106.022,365.504,119.069,362.895,119.069,350.836z M103.343,353.798H88.745v-11.987h14.528v11.987H103.343z M165.543,325.941
		h-14.527c-7.264,0-14.879,6.699-14.879,15.44c0,8.746,0,43.865,0,43.865h15.796v-11.563h14.175v11.564h16.008c0,0,0-35.4,0-44.006
		C182.116,332.57,174.359,325.941,165.543,325.941z M166.037,357.747h-14.175V341.88h14.175V357.747z M312.794,347.311
		c-7.052,0-15.444,0-15.444,0v-6.486h27.08v-14.67c0,0-17.63,0-27.15,0c-9.52,0-16.076,7.548-16.076,15.162v6.274
		c0,9.168,8.251,15.515,15.938,15.515c7.688,0,14.313,0,14.313,0v7.193H282.26v14.952c0,0,20.238,0,28.842,0
		c8.604,0,16.361-6.487,16.361-14.315v-7.828C327.393,353.586,319.846,347.311,312.794,347.311z M248.195,326.012h-15.867v59.381
		h39.633v-15.938h-23.766V326.012L248.195,326.012z M199.183,385.393h15.867v-59.381h-15.867V385.393z"/>
</g>
<g id="js" display="none">
	<path display="inline" fill="#FFFFFF" d="M24.414,18.736h361.172v361.172H24.414V18.736z M356.026,293.77
		c-2.646-16.479-13.393-30.312-45.219-43.224c-11.055-5.081-23.378-8.721-27.053-17.098c-1.306-4.875-1.479-7.621-0.649-10.574
		c2.367-9.579,13.801-12.565,22.861-9.819c5.837,1.957,11.364,6.455,14.695,13.631c15.586-10.094,15.552-10.023,26.435-16.961
		c-3.979-6.18-6.107-9.029-8.72-11.673c-9.373-10.471-22.145-15.861-42.57-15.449c-3.535,0.446-7.105,0.927-10.645,1.373
		c-10.197,2.575-19.912,7.931-25.611,15.106c-17.098,19.396-12.223,53.352,8.584,67.325c20.495,15.38,50.604,18.883,54.449,33.268
		c3.742,17.612-12.943,23.312-29.523,21.285c-12.225-2.54-19.021-8.754-26.367-20.05c-13.526,7.828-13.526,7.828-27.434,15.826
		c3.299,7.211,6.766,10.473,12.291,16.721c26.161,26.539,91.632,25.234,103.374-14.936
		C355.408,317.148,358.566,307.948,356.026,293.77z M220.759,184.731h-33.783c0,29.182-0.137,58.158-0.137,87.339
		c0,18.574,0.961,35.604-2.06,40.822c-4.943,10.265-17.749,8.991-23.586,7.004c-5.939-2.918-8.96-7.074-12.462-12.944
		c-0.961-1.683-1.682-2.985-1.922-3.091c-9.167,5.598-18.299,11.229-27.466,16.824c4.566,9.373,11.295,17.51,19.913,22.795
		c12.875,7.727,30.178,10.095,48.271,5.938c11.776-3.437,21.938-10.54,27.26-21.354c7.689-14.18,6.042-31.346,5.974-50.33
		C220.932,246.77,220.759,215.802,220.759,184.731z"/>
</g>
<g id="css" display="none">
	<path display="inline" fill="#FFFFFF" d="M78.456,44.199l-12.067,60.162h244.757l-7.695,38.825H58.605l-11.892,60.162h244.758
		l-13.643,68.556l-98.637,32.705L93.67,271.904l5.859-29.73H39.455l-14.341,72.143l141.398,54.129l162.997-54.129L383.287,44.2
		L78.456,44.199L78.456,44.199z"/>
</g>
<g id="wordpress" display="none">
	<path display="inline" fill="#FFFFFF" d="M55.547,212.749c0,58.294,33.911,108.741,82.957,132.563L68.438,152.772
		C60.03,170.99,55.547,191.17,55.547,212.749z M302.178,205.183c0-18.217-6.445-30.829-12.051-40.638
		c-7.566-12.052-14.574-22.421-14.574-34.473c0-13.452,10.37-26.064,24.662-26.064c0.562,0,1.401,0,1.963,0
		c-26.062-24.103-61.097-38.675-99.493-38.675c-51.569,0-96.69,26.344-123.036,66.421c3.364,0,6.727,0.28,9.53,0.28
		c15.415,0,39.237-1.962,39.237-1.962c7.847-0.562,8.967,11.21,0.84,12.052c0,0-7.847,0.84-16.816,1.401l53.811,159.469
		l32.23-96.689l-22.982-62.779c-7.847-0.562-15.415-1.401-15.415-1.401c-7.847-0.561-7.007-12.612,0.84-12.052
		c0,0,24.383,1.962,38.677,1.962c15.413,0,39.235-1.962,39.235-1.962c7.85-0.56,8.969,11.21,0.844,12.052
		c0,0-8.13,0.84-16.813,1.401l53.249,158.346l14.57-49.045C297.412,232.367,302.178,217.793,302.178,205.183z M205.487,225.643
		l-44.282,128.359c13.173,3.922,27.186,5.885,41.479,5.885c17.095,0,33.632-3.082,49.046-8.408c-0.282-0.562-0.84-1.398-1.123-1.963
		L205.487,225.643z M332.166,141.843c0.559,4.765,1.119,9.809,1.119,15.134c0,14.855-2.803,31.67-11.21,52.69l-45.121,130.04
		c43.72-25.503,73.146-72.868,73.146-127.236C350.102,186.966,343.655,162.863,332.166,141.843z M202.964,40.949
		c-94.728,0-171.8,77.072-171.8,171.8c0,94.728,77.072,171.8,171.8,171.8c94.728,0,171.8-77.072,171.8-171.8
		C374.484,118.021,297.412,40.949,202.964,40.949z M202.964,376.423c-90.243,0-163.953-73.429-163.953-163.952
		c0-90.246,73.429-163.675,163.953-163.675c90.245,0,163.953,73.429,163.953,163.953
		C366.638,302.994,293.209,376.423,202.964,376.423z"/>
</g>
<g id="php">
	<path fill="#6BA0AB" d="M83.551,170.188c12.682,0,21.067,2.306,25.26,7.021c4.192,4.717,5.241,12.682,3.039,24.001
		c-2.306,11.845-6.708,20.229-13.31,25.365c-6.604,5.03-16.561,7.547-29.977,7.547H48.229l12.473-63.935L83.551,170.188
		L83.551,170.188z M2.427,298.896h33.33l7.861-40.562h28.509c12.577,0,22.953-1.361,31.023-3.982
		c8.176-2.619,15.512-7.021,22.115-13.312c5.555-5.136,10.062-10.795,13.521-16.979c3.458-6.184,5.87-12.996,7.336-20.438
		c3.564-18.133,0.838-32.178-7.966-42.345c-8.804-10.062-22.849-15.197-42.134-15.197H32.088L2.427,298.896z M170.649,105.518
		h33.016l-7.861,40.667h29.453c18.552,0,31.232,3.249,38.257,9.642c7.021,6.498,9.116,16.875,6.289,31.339l-13.838,71.062h-33.54
		l13.103-67.604c1.469-7.65,0.943-12.892-1.678-15.722c-2.619-2.831-8.066-4.192-16.561-4.192h-26.412l-16.979,87.521h-33.016
		L170.649,105.518z M343.273,170.188c12.682,0,21.065,2.306,25.26,7.021c4.189,4.717,5.24,12.682,3.039,24.001
		c-2.31,11.845-6.707,20.229-13.312,25.365c-6.604,5.03-16.561,7.547-29.976,7.547h-20.229l12.476-63.935L343.273,170.188
		L343.273,170.188z M262.148,298.896h33.332l7.857-40.562h28.508c12.577,0,22.955-1.361,31.023-3.982
		c8.177-2.619,15.513-7.021,22.117-13.312c5.554-5.136,10.062-10.795,13.52-16.979c3.459-6.184,5.87-12.996,7.338-20.438
		c3.562-18.133,0.837-32.178-7.967-42.345c-8.804-10.062-22.849-15.197-42.134-15.197h-64.039L262.148,298.896z"/>
</g>
<g id="responsive" display="none">
	<g display="inline">
		<path fill="#FFFFFF" d="M214.096,313.797c-5.134-3.773-5.678-9.443-5.678-9.443l-1.925-12.299h-61.342l-1.93,12.299
			c0,0-0.537,5.67-5.669,9.443c-5.125,3.777-9.177,7.014-5.125,7.562c3.9,0.522,40.685,0.048,43.398,0
			c2.722,0.048,39.499,0.522,43.403,0C223.271,320.811,219.219,317.581,214.096,313.797z"/>
		<path fill="#FFFFFF" d="M71.407,210.555c0-5.688-4.616-10.306-10.307-10.306H12.152c-5.691,0-10.308,4.617-10.308,10.306v108.2
			c0,5.698,4.617,10.31,10.308,10.31h48.951c5.688,0,10.308-4.608,10.308-10.31v-108.2H71.407z M31.513,211.846h10.306
			c0.712,0,1.288,0.574,1.288,1.281c0,0.713-0.576,1.295-1.288,1.295H31.513c-0.712,0-1.29-0.586-1.29-1.295
			C30.225,212.413,30.801,211.846,31.513,211.846z M36.237,322.971c-2.848,0-5.157-2.306-5.157-5.154
			c0-2.848,2.31-5.153,5.157-5.153c2.845,0,5.152,2.301,5.152,5.153C41.39,320.665,39.086,322.971,36.237,322.971z M64.968,308.457
			H8.286v-86.312h56.683L64.968,308.457L64.968,308.457z"/>
		<path fill="#FFFFFF" d="M393.693,140.974H287.682c-7.979,0-14.453,6.467-14.453,14.453v151.728
			c0,7.981,6.475,14.461,14.453,14.461h106.015c7.985,0,14.454-6.479,14.454-14.459v-151.73
			C408.143,147.438,401.678,140.974,393.693,140.974z M319.932,313.568c-3.987,0-7.229-3.229-7.229-7.217
			c0-3.992,3.242-7.229,7.229-7.229c3.984,0,7.217,3.233,7.217,7.229C327.146,310.341,323.916,313.568,319.932,313.568z
			 M340.684,313.568c-3.981,0-7.222-3.229-7.222-7.217c0-3.992,3.237-7.229,7.222-7.229c3.996,0,7.229,3.233,7.229,7.229
			C347.909,310.341,344.685,313.568,340.684,313.568z M361.457,313.568c-3.998,0-7.227-3.229-7.227-7.217
			c0-3.992,3.229-7.229,7.227-7.229c3.985,0,7.219,3.233,7.219,7.229C368.676,310.341,365.442,313.568,361.457,313.568z
			 M399.112,292.695H282.262V153.613h116.854L399.112,292.695L399.112,292.695z"/>
		<path fill="#FFFFFF" d="M306.124,128.786h17.77V96.608c0-6.548-5.306-11.849-11.849-11.849H39.602
			c-6.541,0-11.848,5.301-11.848,11.849v91.457h17.772v-85.538h260.598V128.786L306.124,128.786z"/>
		<path fill="#FFFFFF" d="M83.597,244.67v35.535H261.04V244.67H83.597z M175.821,270.562c-4.485,0-8.126-3.645-8.126-8.125
			c0-4.484,3.641-8.125,8.126-8.125c4.486,0,8.126,3.641,8.126,8.125C183.947,266.92,180.307,270.562,175.821,270.562z"/>
	</g>
</g>
</svg>
