<svg xmlns="http://www.w3.org/2000/svg" width="150" height="150" viewBox="0 0 150 150"><path d="M101.62 79.14c-2.57.012-4.808.632-6.68 1.547-.687-1.36-1.373-2.572-1.494-3.46-.136-1.037-.297-1.67-.136-2.91.162-1.237.89-3 .877-3.136-.014-.135-.162-.767-1.644-.78s-2.76.282-2.908.674c-.148.39-.43 1.278-.62 2.195-.256 1.345-2.962 6.15-4.51 8.67-.5-.983-.93-1.845-1.024-2.532-.134-1.036-.296-1.67-.134-2.908.162-1.238.89-3.004.875-3.138-.012-.134-.16-.768-1.642-.78-1.48-.014-2.76.283-2.91.673-.146.39-.308 1.306-.617 2.194-.31.89-3.904 8.914-4.848 10.987-.484 1.064-.902 1.912-1.198 2.49 0 0-.014.042-.054.108-.256.5-.404.77-.404.77v.013c-.202.363-.417.7-.524.7-.08 0-.23-.97.026-2.29.54-2.787 1.818-7.123 1.805-7.27 0-.083.242-.835-.835-1.227-1.05-.39-1.428.257-1.522.257-.093 0-.16.23-.16.23s1.17-4.876-2.235-4.876c-2.127 0-5.062 2.33-6.517 4.432-.916.497-2.87 1.562-4.956 2.706-.794.444-1.615.89-2.383 1.307-.054-.055-.107-.12-.162-.176-4.12-4.403-11.74-7.515-11.42-13.427.122-2.154.863-7.81 14.64-14.676 11.337-5.59 20.358-4.04 21.92-.606 2.236 4.902-4.833 14.006-16.55 15.324-4.47.5-6.81-1.225-7.404-1.87-.62-.675-.715-.715-.942-.58-.378.202-.135.808 0 1.157.35.917 1.79 2.534 4.228 3.327 2.154.7 7.393 1.09 13.735-1.36 7.096-2.745 12.643-10.382 11.015-16.776-1.63-6.49-12.403-8.63-22.597-5.01-6.06 2.155-12.63 5.548-17.356 9.966-5.615 5.25-6.505 9.816-6.14 11.73C39.516 77.59 48.875 82.007 52.62 85.28c-.19.108-.364.202-.513.283-1.872.928-9.01 4.66-10.786 8.604-2.02 4.47.324 7.675 1.873 8.106 4.808 1.334 9.75-1.063 12.4-5.022 2.654-3.958 2.33-9.102 1.105-11.46-.013-.025-.027-.052-.054-.08.485-.282.983-.58 1.467-.86.958-.566 1.9-1.092 2.708-1.523-.458 1.253-.794 2.748-.956 4.902-.202 2.53.835 5.816 2.195 7.11.605.564 1.32.578 1.777.578 1.59 0 2.302-1.32 3.097-2.882.97-1.912 1.847-4.134 1.847-4.134s-1.092 6.005 1.87 6.005c1.08 0 2.17-1.4 2.653-2.114v.014s.028-.04.082-.134c.107-.176.174-.283.174-.283v-.026c.432-.754 1.4-2.465 2.842-5.306 1.858-3.663 3.65-8.242 3.65-8.242s.16 1.118.713 2.978c.324 1.09.997 2.287 1.535 3.446-.43.606-.7.942-.7.942l.015.014c-.35.457-.728.956-1.146 1.44-1.467 1.75-3.218 3.757-3.46 4.337-.283.687-.216 1.184.323 1.59.39.295 1.09.335 1.804.295 1.32-.094 2.25-.418 2.708-.62.714-.255 1.55-.645 2.33-1.225 1.44-1.064 2.315-2.585 2.234-4.592-.04-1.103-.403-2.207-.85-3.244.136-.188.258-.377.393-.566 2.275-3.326 4.04-6.975 4.04-6.975s.16 1.117.713 2.976c.27.943.82 1.967 1.306 2.963-2.14 1.738-3.46 3.758-3.932 5.078-.848 2.45-.188 3.556 1.063 3.812.565.12 1.374-.148 1.966-.404.755-.242 1.645-.66 2.493-1.28 1.44-1.062 2.827-2.544 2.746-4.55-.04-.916-.283-1.818-.62-2.693 1.817-.754 4.16-1.172 7.15-.822 6.41.754 7.676 4.754 7.433 6.438-.242 1.684-1.59 2.6-2.033 2.882-.443.283-.592.377-.552.58.055.295.27.28.646.23.525-.096 3.367-1.36 3.487-4.458.206-3.964-3.565-8.285-10.23-8.245zM52.174 95.81c-2.128 2.315-5.09 3.19-6.37 2.45-1.373-.795-.835-4.215 1.777-6.666 1.59-1.495 3.638-2.88 4.998-3.73.31-.187.767-.456 1.318-.794.095-.053.148-.08.148-.08l.324-.203c.957 3.5.04 6.585-2.194 9.022zM67.66 85.277c-.74 1.805-2.29 6.423-3.233 6.168-.808-.215-1.306-3.717-.16-7.178.578-1.736 1.804-3.81 2.517-4.62 1.158-1.292 2.438-1.722 2.748-1.196.39.687-1.415 5.696-1.872 6.826zm12.778 6.114c-.31.162-.606.27-.74.19-.095-.055.134-.27.134-.27s1.603-1.726 2.235-2.506c.363-.458.795-.995 1.253-1.603v.176c0 2.06-1.994 3.447-2.882 4.012zm9.857-2.248c-.23-.162-.19-.7.58-2.383.295-.66.996-1.765 2.194-2.828.133.432.228.85.215 1.24-.014 2.6-1.872 3.567-2.99 3.972z" fill="#CD6799"/></svg>