<svg enable-background="new 0 0 515.91 728.5" height="512" viewBox="0 0 512.00003 512" width="512" xmlns="http://www.w3.org/2000/svg"><rect height="512" rx="64" ry="64" width="512" fill="#2984b8"/><path d="M56.003 256.108c-.633-110.143 90.731-200.88 201.472-200.179 108.846.703 198.595 90.63 198.525 200.32-.036 110.04-90.348 199.889-200.809 199.826-109.476-.07-199.187-90.141-199.187-199.967zm120.296 160.741l.351-.035v-.35c-.632-2.005-1.16-4.042-1.862-6.009-27.032-74.05-54.035-148.104-81.105-222.155-.459-1.264-.565-3.37-1.967-3.471-1.825-.104-1.862 2.137-2.425 3.471-10.427 25.313-14.818 51.793-12.852 79.035 3.723 51.894 25.841 94.664 65.835 127.988 10.355 8.64 21.45 16.261 34.024 21.525zm169.659-54.177c.455-1.05.912-1.753 1.123-2.527 8.991-29.984 18.12-59.901 26.757-89.986 6.141-21.357 4.032-42.243-5.655-62.292-3.518-7.231-7.798-13.976-11.94-20.826-4.741-7.828-9.055-15.835-10.78-24.998-3.722-19.344 8.353-36.13 27.772-38.694.81-.104 1.721.035 2.281-.883 0-1.331-1.122-1.857-1.965-2.522-40.307-34.09-86.867-48.315-139.183-42.485-38.585 4.318-72.122 20.363-100.738 46.56-9.55 8.777-17.941 18.605-25.347 29.249-.632.875-1.688 1.821-1.233 2.948.565 1.466 2.178.913 3.374.944 3.37.104 6.705.052 10.11.104 14.467.214 28.866-1.363 43.298-1.892 5.582-.174 8.668 2.144 9.057 6.6.388 4.183-2.564 7.268-7.9 8.009-4.319.595-8.639.946-12.989 1.332-6.148.56-6.215.56-4.216 6.496l61.306 182.409c.493 1.37.533 3.057 2.181 3.894 1.228-.81 1.434-2.106 1.822-3.263 12.149-36.343 24.262-72.715 36.374-109.061.638-1.892 1.018-3.716.287-5.718-8.712-23.737-17.387-47.473-25.982-71.209-.917-2.523-2.497-3.299-5.057-3.477-5.161-.35-10.363-.917-15.486-1.652-4.111-.631-6.53-3.899-6.142-7.689.417-4.077 3.05-6.459 7.299-6.673.983-.07 1.966 0 2.948.07 19.634 1.153 39.257 2.389 58.918 1.687 11.203-.426 22.4-1.264 33.603-1.727 4.741-.207 7.517 2.249 7.934 6.323.424 4.177-2.104 7.376-6.771 8.075-4.599.666-9.2 1.056-13.8 1.478-6.493.631-6.53.593-4.497 6.636 20.227 60.109 40.456 120.25 60.711 180.369.459 1.412.597 3.096 2.529 4.391zm-86.409-89.468c-2.077 1.793-2.249 3.553-2.816 5.094-4.456 12.85-8.846 25.769-13.269 38.621-12.184 35.431-24.366 70.857-36.624 106.282-1.155 3.339-1.651 5.551 2.948 6.71 34.062 8.636 67.766 7.828 101.298-2.706 3.373-1.085 3.931-2.452 2.739-5.753-16.359-44.523-32.585-89.111-48.843-133.64-1.712-4.736-3.505-9.41-5.434-14.607zm87.921 136.586c24.117-5.828 66.394-57.51 79.139-97.292 15.484-48.242 11.344-94.974-11.483-140.443-1.192.984-1.019 1.713-.948 2.383 2.46 22.93-1.264 45.052-8.741 66.645-18.785 54.245-37.677 108.457-56.499 162.671-.664 1.936-1.747 3.795-1.468 6.037z" fill="#fff"/></svg>