<?xml version="1.0" encoding="utf-8"?>
<!-- Generator: Adobe Illustrator 16.0.0, SVG Export Plug-In . SVG Version: 6.00 Build 0)  -->
<!DOCTYPE svg PUBLIC "-//W3C//DTD SVG 1.1//EN" "http://www.w3.org/Graphics/SVG/1.1/DTD/svg11.dtd">
<svg version="1.1" id="Layer_1" xmlns="http://www.w3.org/2000/svg" xmlns:xlink="http://www.w3.org/1999/xlink" x="0px" y="0px"
	 width="128px" height="128px" viewBox="0 0 128 128" enable-background="new 0 0 128 128" xml:space="preserve">
<g id="g3021">
	<path id="path2989" fill="none" stroke="#E45126" stroke-width="2.4203" d="M124.75,64c0,33.551-27.199,60.75-60.75,60.75
		C30.449,124.75,3.25,97.551,3.25,64C3.25,30.449,30.449,3.25,64,3.25C97.551,3.25,124.75,30.449,124.75,64z"/>
</g>
<g>
	<polygon fill="#E45126" points="41.485,96.611 36.476,40.419 91.524,40.419 86.511,96.602 63.967,102.852 	"/>
	<polygon fill="#F1682B" points="64,98.076 82.216,93.023 86.503,45.013 64,45.013 	"/>
	<polygon fill="#EBEBEB" points="64,65.854 54.881,65.854 54.251,58.798 64,58.798 64,51.906 63.977,51.906 46.719,51.906 
		46.884,53.754 48.578,72.746 64,72.746 	"/>
	<polygon fill="#EBEBEB" points="64,83.754 63.97,83.76 56.294,81.689 55.804,76.191 52.074,76.191 48.886,76.191 49.852,87.012 
		63.969,90.932 64,90.922 	"/>
	<g>
		<path fill="#020202" d="M41.597,25.149h3.502v3.459h3.204v-3.459h3.503v10.478h-3.502v-3.508H45.1v3.508h-3.503V25.149
			L41.597,25.149z"/>
		<path fill="#020202" d="M56.411,28.624h-3.084v-3.475h9.671v3.475h-3.085v7.003h-3.502V28.624L56.411,28.624z"/>
		<path fill="#020202" d="M64.533,25.149h3.651l2.246,3.682l2.245-3.682h3.652v10.478H72.84v-5.193l-2.41,3.725h-0.06l-2.41-3.725
			v5.193h-3.427V25.149L64.533,25.149z"/>
		<path fill="#020202" d="M78.071,25.149h3.505v7.014h4.923v3.464h-8.428V25.149L78.071,25.149z"/>
	</g>
	<polygon fill="#FFFFFF" points="63.977,65.854 63.977,72.746 72.462,72.746 71.663,81.684 63.977,83.758 63.977,90.928 
		78.104,87.012 78.208,85.848 79.827,67.705 79.996,65.854 78.139,65.854 	"/>
	<polygon fill="#FFFFFF" points="63.977,51.906 63.977,56.186 63.977,58.78 63.977,58.798 80.6,58.798 80.6,58.798 80.623,58.798 
		80.76,57.248 81.075,53.754 81.239,51.906 	"/>
</g>
</svg>
