<?xml version="1.0" encoding="utf-8"?>
<!-- Generator: Adobe Illustrator 16.0.4, SVG Export Plug-In . SVG Version: 6.00 Build 0)  -->
<!DOCTYPE svg PUBLIC "-//W3C//DTD SVG 1.1//EN" "http://www.w3.org/Graphics/SVG/1.1/DTD/svg11.dtd">
<svg version="1.1" id="Layer_1" xmlns="http://www.w3.org/2000/svg" xmlns:xlink="http://www.w3.org/1999/xlink" x="0px" y="0px"
	 width="130px" height="130px" viewBox="0 0 130 130" enable-background="new 0 0 130 130" xml:space="preserve">
<g>
	<path fill="#E44D26" d="M130,65c0-35.899-29.102-65-65-65C29.102,0,0,29.101,0,65c0,35.898,29.102,65,65,65
		C100.898,130,130,100.898,130,65z M79.844,23.745h3.696v7.399h5.195v3.654h-8.891V23.745z M65.562,23.745h3.852l2.37,3.884
		l2.366-3.884h3.854v11.054h-3.679V29.32l-2.541,3.93h-0.063l-2.544-3.93v5.479h-3.615V23.745z M53.743,23.745h10.201v3.665h-3.254
		v7.389h-3.695V27.41h-3.252V23.745z M41.368,23.745h3.694v3.65h3.379v-3.65h3.695v11.054h-3.695v-3.702h-3.379v3.702h-3.694V23.745
		z M88.745,99.118l-23.78,6.591L41.25,99.128l-5.285-59.275h58.07L88.745,99.118z"/>
	<path fill="#E44D26" d="M65,100.67L65,100.67l19.215-5.325L88.736,44.7H65h0H41.264l4.521,50.645L65,100.67z M64.974,51.97H65
		h18.187l-0.175,1.95l-0.332,3.686l-0.146,1.633h-0.022H65h-0.026H54.716l0.665,7.444h9.594H65h14.915h1.959l-0.177,1.952
		l-1.708,19.139l-0.109,1.229L65,93.127l-0.034,0.01l-14.891-4.133l-1.018-11.417h3.363h3.934l0.518,5.8l8.095,2.187l0.006-0.002
		v-0.002l8.109-2.188l0.844-9.428H65h-0.026H48.732L46.945,53.92l-0.174-1.95H64.974z"/>
</g>
</svg>
