<?xml version="1.0" encoding="utf-8"?>
<!-- Generator: Adobe Illustrator 17.0.0, SVG Export Plug-In . SVG Version: 6.00 Build 0)  -->
<!DOCTYPE svg PUBLIC "-//W3C//DTD SVG 1.1//EN" "http://www.w3.org/Graphics/SVG/1.1/DTD/svg11.dtd">
<svg version="1.1" id="Layer_1" xmlns="http://www.w3.org/2000/svg" xmlns:xlink="http://www.w3.org/1999/xlink" x="0px" y="0px"
	 width="400px" height="400px" viewBox="0 0 400 400" enable-background="new 0 0 400 400" xml:space="preserve">
<path fill="#ff3333" d="M331.331,110.92l-32.979,32.82l-36.447-7.951l-7.597-36.438l32.987-32.811
	c-5.178-1.383-10.531-2.419-16.065-2.419c-34.54,0-62.687,27.81-62.687,62.35c-0.169,11.571,3.11,22.102,8.466,31.43l-53.024,52.846
	c-9.319-5.532-19.859-8.811-31.428-8.811c-34.54-0.169-62.521,27.81-62.697,62.35c0,5.523,0.869,10.7,2.252,15.887l32.987-32.811
	l36.269,7.944l7.766,36.438l-32.987,32.811c5.178,1.382,10.54,2.42,16.063,2.42c34.54,0,62.512-27.803,62.688-62.343
	c0-10.364-2.589-19.867-7.082-28.502l54.575-54.052c8.467,4.317,18.139,7.083,28.326,7.083c34.54,0.169,62.687-27.81,62.864-62.35
	C333.583,121.461,332.545,116.106,331.331,110.92z"/>
<g>
	<path fill="#ff3333" d="M75.739,68.783l5.186-5.178l32.112,17.785l16.586,16.577l12.262,20.727l116.572,117.265l12.952-12.952
		c3.627-3.627,6.737-0.523,6.737-0.523l5.178,5.186c3.112,3.103,0,16.579,0,16.579l8.29,8.457l42.315,42.484
		c3.281,3.457,2.934,13.474-0.176,16.586l-8.29,8.29l-8.29,8.29c-3.112,3.103-13.298,3.449-16.579,0l-42.315-42.66l-8.288-8.29
		c0,0-13.467,3.112-16.579,0l-5.178-5.177c0,0-3.112-3.112,0.515-6.739l12.952-12.952L125.306,135.274l-20.727-12.438
		l-16.577-16.747l-17.615-32.12L75.739,68.783z"/>
</g>
</svg>
