<svg xmlns="http://www.w3.org/2000/svg" height="120" width="120"><path d="M15.48 5.18C7.46 5.18.98 11.286.98 18.84c0 7.55 6.485 13.66 14.5 13.66 8.02 0 14.5-6.106 14.5-13.66 0-7.55-6.485-13.66-14.5-13.66zm74.5 34C77.39 40.218 71.92 45.618 66.9 51.8V40.4l-25.71.094-.094 74.03h25.81l.188-43.61c-.114-6.224 4.638-11.07 13.37-11.21 8.217-.132 12.2 4.975 12.24 11.49v43.42l25.71-.094.094-44.83c.17-15.03-7.798-30.2-28.54-30.52zm-85.8 1.224v74.03H28.2v-74.03H4.18z" fill-opacity=".941" class="hover" fill="#2980bf"/></svg>