<svg xmlns="http://www.w3.org/2000/svg" width="639.654" height="639.654" viewBox="160.429 -39.5 639.654 639.654" enable-background="new 160.429 -39.5 639.654 639.654"><path fill="#E44D26" d="M317.736 515.022l-36.106-404.969h396.74l-36.144 404.905-162.469 45.042z"/><path fill="#F16529" d="M480 525.572l131.283-36.397 30.887-346.01h-162.17z"/><path fill="#EBEBEB" d="M480 293.362h-65.723l-4.54-50.86h70.263v-49.668h-124.54299999999999l1.189 13.325 12.207 136.871h111.147zM480 422.355l-.218.058-55.315-14.936-3.536-39.613h-49.859l6.959 77.986 101.74 28.244.229-.064z"/><path d="M318.543 0h25.24v24.938h23.089v-24.938h25.242v75.517h-25.24v-25.288h-23.089v25.288h-25.24v-75.517h-.002zM425.306 25.042h-22.221v-25.042h69.694v25.042h-22.23v50.474h-25.242v-50.474h-.001zM483.84 0h26.319l16.19 26.534 16.173-26.534h26.329v75.517h-25.137v-37.43l-17.365 26.85h-.434l-17.378-26.85v37.43h-24.697v-75.517zM581.412 0h25.248v50.555h35.495v24.962h-60.744v-75.517z"/><path fill="#fff" d="M479.828 293.362v49.668h61.161l-5.766 64.415-55.395 14.951v51.674l101.822-28.22.747-8.392 11.671-130.758 1.212-13.338h-13.384zM479.828 192.834v49.668h119.972l.996-11.164 2.263-25.179 1.188-13.325z"/></svg>