<?xml version="1.0" encoding="UTF-8" standalone="no"?>
<!-- Generator: Adobe Illustrator 15.0.2, SVG Export Plug-In . SVG Version: 6.00 Build 0)  -->

<svg
   xmlns:dc="http://purl.org/dc/elements/1.1/"
   xmlns:cc="http://creativecommons.org/ns#"
   xmlns:rdf="http://www.w3.org/1999/02/22-rdf-syntax-ns#"
   xmlns:svg="http://www.w3.org/2000/svg"
   xmlns="http://www.w3.org/2000/svg"
   xmlns:sodipodi="http://sodipodi.sourceforge.net/DTD/sodipodi-0.dtd"
   xmlns:inkscape="http://www.inkscape.org/namespaces/inkscape"
   version="1.1"
   id="katman_1"
   x="0px"
   y="0px"
   width="350px"
   height="350px"
   viewBox="0 0 350 350"
   enable-background="new 0 0 342 322"
   xml:space="preserve"
   inkscape:version="0.48.2 r9819"
   sodipodi:docname="photoshop.svg"><metadata
   id="metadata3051"><rdf:RDF><cc:Work
       rdf:about=""><dc:format>image/svg+xml</dc:format><dc:type
         rdf:resource="http://purl.org/dc/dcmitype/StillImage" /></cc:Work></rdf:RDF></metadata><defs
   id="defs3049" /><sodipodi:namedview
   pagecolor="#ffffff"
   bordercolor="#666666"
   borderopacity="1"
   objecttolerance="10"
   gridtolerance="10"
   guidetolerance="10"
   inkscape:pageopacity="0"
   inkscape:pageshadow="2"
   inkscape:window-width="1325"
   inkscape:window-height="921"
   id="namedview3047"
   showgrid="false"
   inkscape:zoom="1.5885714"
   inkscape:cx="175"
   inkscape:cy="175"
   inkscape:window-x="0"
   inkscape:window-y="0"
   inkscape:window-maximized="0"
   inkscape:current-layer="katman_1" />
<g
   id="g3039"
   transform="matrix(1.1322531,0,0,1.0983589,-19.579299,-2.7278557)">
	<rect
   x="13.927"
   y="1"
   width="314.146"
   height="320"
   id="rect3041"
   style="fill:#8bc3fc" />
	<rect
   x="36.341"
   y="25.816"
   width="269.31799"
   height="270.367"
   id="rect3043"
   style="fill:#241d69" />
	<path
   d="m 175.603,128.767 c 0,8.054 -0.427,13.305 -2.786,19.511 -2.363,6.205 -3.75,10.009 -7.931,14.717 -4.144,4.661 -9.788,8.903 -16.14,11.739 -7.206,3.218 -14.311,5.362 -23.204,5.362 h -11.73 v 41.681 c 0,0.741 -0.02,2.721 -0.592,3.174 -1.55,1.226 -10.551,0.92 -13.262,0.92 -2.64,0 -12.334,0.026 -13.054,-1.149 -0.379,-0.617 -0.504,-2.205 -0.504,-2.945 V 92.797 c 0,-3.47 -0.451,-7.666 1.254,-9.403 1.702,-1.734 5.244,-1.012 8.022,-1.012 l 31.379,-0.962 c 5.426,-0.039 6.678,0.655 9.681,1.022 2.874,0.354 6.193,1.14 10.223,1.991 4.029,0.85 6.965,2.827 10.675,5.823 4.426,3.575 6.403,6.094 9.321,9.604 2.919,3.509 4.909,8.281 6.438,12.972 1.525,4.692 2.21,10.101 2.21,15.935 z m -27.289,1.43 c 0,-5.022 -0.254,-10.028 -1.922,-13.279 -1.667,-3.251 -2.372,-4.388 -4.708,-7.152 -1.897,-2.245 -5.21,-3.801 -7.784,-4.674 -3.079,-1.042 -5.474,-1.646 -8.323,-1.646 h -11.71 l 0.095,54.024 h 12.588 c 4.379,0 8.791,-2.096 11.675,-4.087 2.668,-1.844 4.287,-3.779 6.341,-6.689 1.697,-2.407 2.1,-5.287 3.074,-8.429 0.974,-3.137 0.674,-4.373 0.674,-8.068 z m 107.342,61.469 c 0,5.616 -0.99,10.564 -2.97,14.847 -1.98,4.284 -4.555,9.083 -8.165,11.966 -3.612,2.879 -7.895,5.683 -12.829,7.125 -4.934,1.439 -10.518,1.916 -16.285,1.916 -3.477,0 -6.855,-0.521 -10.018,-1.075 -3.163,-0.552 -5.93,-1.679 -8.432,-2.524 -2.5,-0.851 -4.529,-1.949 -6.196,-2.837 -1.668,-0.888 -3.2,-1.83 -3.966,-2.604 -0.764,-0.776 -1.152,-8.088 -1.152,-11.339 0,-2.142 0.304,-11.767 0.721,-12.028 0.419,-0.259 0.912,-0.613 1.538,-0.613 0.766,0 2.841,1.53 4.335,2.451 1.494,0.925 3.324,1.726 5.551,2.836 2.224,1.108 3.927,1.645 6.881,2.604 2.953,0.958 6.48,1.914 10.234,1.914 2.361,0 4.299,0.422 6.162,0 6.773,-1.533 7.238,-3.841 8.034,-9.846 0.407,-3.075 -6.414,-9.51 -13.621,-11.656 -8.339,-2.482 -19.795,-11.543 -23.247,-15.849 -1.994,-2.485 -3.821,-5.208 -5.108,-8.531 -1.288,-3.324 -1.927,-7.314 -1.927,-11.969 0,-4.727 0.867,-9.066 2.605,-13.02 1.734,-3.951 4.236,-7.332 7.504,-10.139 3.267,-2.807 7.244,-4.988 11.933,-6.538 4.692,-1.551 9.955,-2.327 15.794,-2.327 2.918,0 5.748,0.222 8.494,0.665 2.746,0.443 5.228,0.997 7.451,1.663 2.226,0.665 4.103,1.385 5.629,2.161 1.527,0.776 2.623,1.441 3.284,1.995 0.66,0.554 1.13,1.107 1.405,1.662 0.277,0.556 0.485,1.219 0.626,1.995 0.141,0.775 0.254,6.519 0.254,8.218 0,1.994 -0.297,9.54 -0.575,9.959 -0.434,0.651 -0.705,0.959 -1.262,0.959 -0.627,0 -2.681,-1.256 -3.999,-2.031 -1.32,-0.775 -3.353,-1.68 -5.333,-2.566 -1.805,-0.809 -10.746,-2.886 -15.745,-2.565 -4.904,0.313 -11.883,3.215 -12.036,8.771 -0.145,5.249 10.467,11.521 13.212,12.555 2.744,1.036 5.525,2.162 8.339,3.379 2.814,1.22 5.592,2.643 8.34,4.267 2.743,1.626 5.192,3.62 7.347,5.984 2.153,2.365 3.893,5.189 5.213,8.476 1.319,3.285 1.98,7.185 1.98,11.689 z"
   id="path3045"
   inkscape:connector-curvature="0"
   style="fill:#8bc3fc" />
</g>
</svg>