<?xml version="1.0" encoding="utf-8"?>
<!-- Generator: Adobe Illustrator 14.0.0, SVG Export Plug-In . SVG Version: 6.00 Build 43363)  -->
<!DOCTYPE svg PUBLIC "-//W3C//DTD SVG 1.1//EN" "http://www.w3.org/Graphics/SVG/1.1/DTD/svg11.dtd">
<svg version="1.1" id="Layer_1" xmlns="http://www.w3.org/2000/svg" xmlns:xlink="http://www.w3.org/1999/xlink" x="0px" y="0px"
	 width="80px" height="80px" viewBox="0 0 80 80" enable-background="new 0 0 80 80" xml:space="preserve">
<g>
	<defs>
		<rect id="SVGID_1_" x="9.07" y="1" width="61.86" height="78"/>
	</defs>
	<clipPath id="SVGID_2_">
		<use xlink:href="#SVGID_1_"  overflow="visible"/>
	</clipPath>
	<path clip-path="url(#SVGID_2_)" fill="#80ff80" d="M49.1,52.659l-3.396-0.932c-0.246-0.739-0.549-1.46-0.895-2.156l1.744-3.061
		c0.354-0.622,0.248-1.399-0.258-1.905l-4.127-4.131c-0.504-0.504-1.284-0.609-1.906-0.254l-3.063,1.745
		c-0.697-0.348-1.417-0.647-2.151-0.896l-0.933-3.397c-0.188-0.688-0.814-1.166-1.528-1.166h-5.84c-0.715,0-1.341,0.48-1.529,1.168
		L24.29,41.07c-0.736,0.248-1.457,0.548-2.154,0.896l-3.062-1.745c-0.621-0.355-1.401-0.25-1.907,0.254l-4.129,4.131
		c-0.505,0.506-0.609,1.283-0.255,1.905l1.744,3.059c-0.35,0.7-0.649,1.421-0.898,2.16l-3.393,0.93
		c-0.688,0.188-1.167,0.814-1.167,1.528v5.836c0,0.714,0.479,1.341,1.167,1.528l3.395,0.932c0.249,0.739,0.548,1.462,0.898,2.156
		l-1.746,3.063c-0.354,0.619-0.25,1.398,0.255,1.904l4.129,4.129c0.505,0.504,1.286,0.609,1.907,0.256l3.062-1.747
		c0.696,0.35,1.417,0.647,2.154,0.896l0.929,3.396c0.188,0.688,0.814,1.167,1.529,1.167h5.84c0.714,0,1.34-0.479,1.528-1.166
		l0.933-3.397c0.736-0.248,1.456-0.546,2.153-0.896l3.062,1.747c0.622,0.354,1.402,0.248,1.906-0.256l4.127-4.129
		c0.506-0.506,0.611-1.285,0.256-1.904l-1.746-3.063c0.35-0.694,0.652-1.417,0.898-2.156l3.396-0.932
		c0.688-0.188,1.164-0.814,1.164-1.528v-5.836C50.264,53.474,49.787,52.847,49.1,52.659 M47.098,58.815l-3.072,0.843
		c-0.537,0.147-0.957,0.564-1.107,1.104c-0.303,1.09-0.74,2.143-1.297,3.121c-0.279,0.485-0.279,1.084,0,1.569l1.58,2.77
		l-2.419,2.418l-2.769-1.58c-0.486-0.278-1.083-0.278-1.569,0c-0.983,0.558-2.031,0.994-3.119,1.294
		c-0.537,0.148-0.958,0.569-1.104,1.108l-0.843,3.072h-3.421l-0.841-3.072c-0.147-0.537-0.567-0.96-1.107-1.108
		c-1.085-0.3-2.133-0.736-3.117-1.294c-0.486-0.277-1.082-0.277-1.569,0l-2.771,1.58l-2.417-2.418l1.579-2.77
		c0.276-0.488,0.276-1.084,0-1.569c-0.559-0.98-0.995-2.031-1.298-3.121c-0.149-0.539-0.57-0.958-1.108-1.105l-3.068-0.841v-3.419
		l3.068-0.839c0.539-0.147,0.961-0.569,1.11-1.106c0.299-1.09,0.736-2.14,1.296-3.123c0.276-0.485,0.276-1.081,0-1.567l-1.581-2.77
		l2.419-2.42l2.771,1.58c0.486,0.277,1.082,0.278,1.567,0.002c0.988-0.56,2.038-0.998,3.119-1.296
		c0.54-0.148,0.96-0.569,1.107-1.108l0.841-3.072h3.421l0.843,3.072c0.146,0.539,0.567,0.96,1.104,1.108
		c1.084,0.3,2.132,0.736,3.119,1.296c0.486,0.276,1.082,0.275,1.567-0.002l2.771-1.58l2.419,2.42l-1.58,2.77
		c-0.277,0.485-0.277,1.082,0,1.567c0.557,0.98,0.994,2.03,1.297,3.123c0.15,0.538,0.57,0.958,1.109,1.104l3.07,0.841V58.815z
		 M29.668,50.891c-3.428,0-6.216,2.789-6.216,6.215c0,3.428,2.789,6.215,6.216,6.215c3.427,0,6.213-2.787,6.213-6.215
		C35.882,53.68,33.095,50.891,29.668,50.891 M29.668,60.15c-1.679,0-3.047-1.365-3.047-3.045s1.368-3.045,3.047-3.045
		c1.678,0,3.044,1.365,3.044,3.045S31.347,60.15,29.668,60.15"/>
	<!-- <polygon clip-path="url(#SVGID_2_)" fill="#808080" points="57.021,9.537 54.889,8.825 53.381,4.739 51.158,3.676 48.494,4.563 
		46.895,8.205 42.986,10.69 38.723,7.493 35.437,11.045 36.147,15.31 35.88,18.595 32.15,20.462 30.996,26.146 35.614,26.945 
		36.857,30.678 35.082,34.585 38.635,38.671 42.719,36.627 46.184,38.137 47.693,42.311 52.936,42.579 54.268,37.782 58.443,37.07 
		61.551,38.671 66.08,34.762 64.305,31.209 65.461,27.212 69.902,26.325 70.166,20.195 64.838,19.13 63.77,15.31 66.08,11.934 
		62.617,7.76 58.443,9.537 	"/> -->
	<path clip-path="url(#SVGID_2_)" fill="#66ff66" d="M69.766,18.675l-3.396-0.932c-0.246-0.74-0.549-1.46-0.895-2.156l1.746-3.061
		c0.352-0.622,0.248-1.399-0.258-1.905L62.834,6.49c-0.504-0.504-1.283-0.609-1.904-0.255l-3.064,1.746
		c-0.697-0.349-1.418-0.646-2.15-0.896l-0.934-3.398C54.594,3,53.967,2.522,53.254,2.522h-5.84c-0.715,0-1.342,0.479-1.527,1.167
		l-0.932,3.396c-0.736,0.249-1.455,0.547-2.154,0.896L39.74,6.235c-0.621-0.354-1.401-0.249-1.906,0.255l-4.129,4.131
		c-0.505,0.506-0.61,1.283-0.255,1.905l1.743,3.059c-0.349,0.699-0.648,1.42-0.897,2.159l-3.393,0.931
		c-0.688,0.188-1.167,0.813-1.167,1.527v5.837c0,0.714,0.479,1.341,1.167,1.527l3.395,0.932c0.249,0.74,0.548,1.462,0.897,2.157
		l-1.745,3.062c-0.355,0.62-0.25,1.399,0.255,1.905l4.129,4.129c0.505,0.504,1.285,0.609,1.906,0.256l3.061-1.747
		c0.699,0.349,1.418,0.648,2.154,0.896l0.932,3.396c0.186,0.688,0.813,1.167,1.527,1.167h5.84c0.713,0,1.34-0.478,1.527-1.165
		l0.934-3.398c0.736-0.247,1.457-0.547,2.152-0.896l3.063,1.747c0.621,0.354,1.4,0.248,1.904-0.256l4.129-4.129
		c0.506-0.506,0.609-1.285,0.254-1.905l-1.744-3.062c0.348-0.695,0.65-1.417,0.896-2.157l3.396-0.932
		c0.688-0.187,1.164-0.813,1.164-1.527v-5.837C70.93,19.488,70.453,18.863,69.766,18.675 M67.764,24.83l-3.072,0.844
		c-0.535,0.147-0.955,0.564-1.105,1.104c-0.305,1.089-0.74,2.142-1.299,3.12c-0.277,0.485-0.277,1.085,0,1.569l1.58,2.77
		l-2.418,2.418l-2.77-1.579c-0.486-0.279-1.084-0.279-1.57,0c-0.98,0.558-2.029,0.994-3.117,1.293
		c-0.537,0.149-0.957,0.57-1.105,1.109l-0.842,3.072h-3.42l-0.842-3.071c-0.148-0.538-0.566-0.961-1.107-1.11
		c-1.084-0.299-2.135-0.735-3.117-1.293c-0.486-0.277-1.082-0.277-1.57,0l-2.77,1.579l-2.417-2.418l1.578-2.77
		c0.277-0.488,0.277-1.084,0-1.569c-0.559-0.979-0.995-2.031-1.298-3.12c-0.149-0.539-0.569-0.958-1.108-1.105l-3.068-0.842v-3.419
		l3.068-0.838c0.54-0.147,0.961-0.57,1.11-1.107c0.3-1.089,0.736-2.139,1.296-3.122c0.277-0.485,0.277-1.081,0-1.569l-1.58-2.768
		l2.418-2.42l2.77,1.58c0.486,0.276,1.082,0.278,1.57,0.001c0.986-0.56,2.037-0.997,3.117-1.295c0.541-0.149,0.959-0.57,1.107-1.108
		l0.842-3.073h3.42l0.842,3.073c0.148,0.538,0.568,0.959,1.105,1.108c1.084,0.299,2.133,0.735,3.117,1.295
		c0.486,0.277,1.084,0.275,1.568-0.001l2.771-1.58l2.418,2.42l-1.58,2.768c-0.277,0.486-0.277,1.084,0,1.569
		c0.559,0.979,0.994,2.029,1.299,3.122c0.15,0.539,0.57,0.958,1.109,1.105l3.068,0.84V24.83z M50.336,16.906
		c-3.428,0-6.217,2.788-6.217,6.215s2.789,6.214,6.217,6.214s6.213-2.787,6.213-6.214S53.764,16.906,50.336,16.906 M50.336,26.165
		c-1.68,0-3.047-1.364-3.047-3.044c0-1.681,1.367-3.045,3.047-3.045c1.678,0,3.043,1.364,3.043,3.045
		C53.379,24.801,52.014,26.165,50.336,26.165"/>
</g>
</svg>
